<?xml version="1.0" standalone="no"?>
<!DOCTYPE svg PUBLIC "-//W3C//DTD SVG 20010904//EN"
 "http://www.w3.org/TR/2001/REC-SVG-20010904/DTD/svg10.dtd">
<svg version="1.0" xmlns="http://www.w3.org/2000/svg"
 width="680.000000pt" height="680.000000pt" viewBox="0 0 680.000000 680.000000"
 preserveAspectRatio="xMidYMid meet">
<metadata>
Created by potrace 1.14, written by Peter Selinger 2001-2017
</metadata>
<g transform="translate(0.000000,680.000000) scale(0.100000,-0.100000)"
fill="#000000" stroke="none">
<path d="M1736 6728 c18 -29 249 -337 288 -382 22 -27 74 -82 114 -122 39 -39
72 -74 72 -77 0 -7 -54 -23 -100 -31 -19 -3 -46 -9 -60 -12 -80 -17 -483 -24
-570 -10 -25 4 -56 10 -70 12 -14 3 -38 7 -55 9 -16 2 -41 7 -55 10 -14 3 -36
8 -50 11 -14 3 -32 7 -40 9 -8 2 -15 4 -15 5 0 1 -7 3 -15 5 -67 14 -195 65
-290 115 -36 18 -69 35 -75 36 -5 1 -17 3 -25 5 -8 2 -15 -3 -15 -11 0 -16
171 -150 192 -150 6 0 13 -3 15 -8 6 -14 258 -173 340 -215 181 -91 367 -158
488 -174 43 -6 61 -20 40 -33 -48 -30 -179 -129 -224 -170 -22 -19 -64 -57
-95 -85 -60 -55 -88 -81 -242 -231 -106 -103 -136 -134 -202 -216 -21 -26 -44
-53 -51 -60 -38 -39 -236 -293 -236 -304 0 -7 -4 -14 -8 -16 -5 -1 -33 -43
-62 -93 -29 -49 -59 -97 -65 -105 -7 -8 -24 -36 -38 -61 -42 -77 -52 -94 -58
-99 -8 -7 -129 -229 -129 -237 0 -4 -6 -14 -14 -22 -8 -9 -18 -28 -21 -43 -6
-23 -4 -28 12 -28 11 0 40 15 64 33 77 59 202 140 265 173 33 17 71 37 85 45
13 7 26 14 29 14 3 1 30 14 60 30 30 16 61 30 68 31 8 1 21 9 30 17 20 17 78
38 85 30 3 -2 1 -17 -3 -31 -5 -15 -11 -40 -14 -57 -3 -16 -12 -64 -20 -105
-7 -41 -17 -95 -20 -120 -3 -25 -9 -65 -12 -90 -3 -25 -8 -56 -10 -70 -16 -95
-23 -421 -11 -545 9 -101 14 -130 38 -235 35 -157 43 -185 53 -192 16 -11 31
8 34 44 6 78 34 175 73 251 23 45 44 84 48 87 3 3 28 38 55 78 27 39 51 71 53
69 1 -2 5 -38 8 -79 2 -42 7 -89 9 -105 3 -15 7 -49 10 -75 11 -87 17 -123 41
-220 24 -94 93 -284 118 -322 10 -15 8 -43 -10 -150 -34 -192 -42 -244 -49
-313 -6 -60 -5 -62 38 -130 25 -37 66 -90 92 -117 l46 -48 -40 -48 c-46 -55
-150 -149 -150 -135 0 3 -11 -2 -25 -11 -42 -28 -32 -46 38 -68 9 -3 18 -5 20
-4 1 1 12 -4 23 -10 12 -6 34 -14 50 -17 16 -2 40 -7 54 -10 14 -3 48 -5 75
-6 76 -1 82 -5 120 -78 44 -84 74 -119 86 -100 4 7 6 46 4 86 -2 40 0 73 5 73
5 0 28 -17 52 -37 93 -80 142 -115 181 -129 9 -3 17 -10 17 -15 0 -5 4 -9 10
-9 5 0 69 -35 142 -79 73 -43 139 -76 145 -73 19 6 16 37 -7 57 -11 10 -17 21
-15 26 3 4 1 10 -5 14 -25 16 -127 273 -113 285 5 4 28 15 52 24 64 25 71 10
33 -63 -32 -62 -29 -82 12 -75 52 8 166 39 205 56 52 22 68 11 46 -32 -15 -28
-5 -50 22 -50 21 0 15 -23 -17 -58 -20 -23 -29 -44 -28 -65 0 -18 -11 -57 -25
-88 -54 -122 -189 -599 -199 -706 -1 -7 -9 -13 -19 -13 -33 0 -59 -33 -61 -77
-1 -31 -8 -49 -26 -65 -13 -13 -31 -39 -39 -58 -23 -53 -83 -214 -83 -222 0
-5 475 -8 1055 -8 580 0 1055 2 1055 5 0 28 -66 264 -78 278 -8 9 -17 38 -19
65 -7 89 -21 117 -54 107 -14 -5 -19 -1 -20 12 0 10 -2 27 -5 38 -2 11 -6 49
-10 85 -3 36 -8 76 -10 90 -2 14 -6 50 -9 80 -3 30 -7 64 -10 75 -2 11 -11 51
-20 90 -15 72 -68 193 -107 248 -13 18 -24 42 -25 54 -1 12 -20 45 -42 73 -40
51 -49 74 -33 84 5 3 50 -15 101 -40 124 -61 160 -72 194 -63 25 7 27 5 27
-22 0 -51 20 -43 155 61 11 8 39 34 62 56 34 33 45 38 54 28 14 -17 -11 -117
-52 -203 -36 -78 -28 -96 29 -66 39 21 186 135 213 166 14 16 18 16 36 4 28
-20 150 -61 206 -69 27 -4 59 -10 70 -12 32 -7 112 -15 199 -19 64 -3 78 -1
83 13 6 18 -14 37 -78 74 -35 21 -46 48 -16 39 8 -2 56 -16 107 -32 52 -16
103 -30 115 -32 12 -1 27 -5 32 -9 58 -35 564 -43 598 -9 13 13 -2 35 -43 63
-41 28 -57 67 -22 53 52 -21 140 -47 160 -47 45 -1 42 17 -17 80 -95 100 -171
279 -188 437 -11 113 -6 265 12 345 3 14 7 37 10 52 20 107 139 508 151 508 3
0 40 -20 83 -45 49 -28 85 -43 95 -39 9 4 16 9 14 13 -2 4 -34 68 -71 144 -52
104 -67 142 -61 159 4 13 9 28 10 33 1 6 11 46 22 90 17 67 36 153 56 262 31
162 24 611 -14 823 -5 30 -12 73 -15 95 -4 22 -10 56 -15 75 -5 19 -11 51 -14
70 -12 77 -70 251 -123 370 -57 127 -84 174 -160 288 -103 153 -130 187 -225
281 -67 67 -245 216 -360 301 -26 19 -46 39 -45 43 1 4 47 27 102 51 139 60
234 106 241 117 3 5 11 9 18 9 31 0 384 209 434 257 7 7 16 13 20 13 4 0 23
15 43 33 21 17 49 41 64 52 16 11 58 43 95 70 37 28 77 57 90 65 35 24 51 41
47 54 -2 6 -32 32 -68 58 -35 26 -69 52 -76 58 -21 18 -126 68 -219 104 l-91
36 -634 0 -634 0 -150 -49 c-328 -107 -400 -141 -504 -237 -38 -35 -71 -64
-74 -64 -3 0 -34 29 -68 65 -34 36 -73 68 -86 71 -29 8 -62 -13 -162 -104 -75
-68 -110 -89 -98 -59 12 31 -63 298 -99 352 l-16 25 -850 0 c-677 0 -848 -3
-842 -12z m-130 -3762 c20 -42 20 -47 5 -130 -15 -82 -30 -111 -32 -63 -5 86
-4 237 1 237 3 0 15 -20 26 -44z m2627 -1425 c42 -14 42 -14 22 -70 -8 -23
-15 -45 -16 -49 -2 -7 -6 -23 -14 -47 -16 -53 -52 28 -60 138 -3 48 2 62 18
49 7 -5 29 -15 50 -21z"/>
</g>
</svg>
